<svg width="16" height="16" viewBox="0 0 16 16" fill="none" xmlns="http://www.w3.org/2000/svg">
<path d="M13.5 7V4" stroke="black" stroke-linecap="round" stroke-linejoin="round"/>
<path d="M15 5.5H12" stroke="black" stroke-linecap="round" stroke-linejoin="round"/>
<path d="M10.5 1.5V3.5" stroke="black" stroke-linecap="round" stroke-linejoin="round"/>
<path d="M11.5 2.5H9.49997" stroke="black" stroke-linecap="round" stroke-linejoin="round"/>
<path d="M13.5436 9.53751C12.562 9.81279 11.5247 9.82181 10.5384 9.56365C9.5521 9.30549 8.65228 8.78945 7.93136 8.06853C7.21044 7.34761 6.6944 6.4B8r3B4p7yhRXuBWLqsQ546WR43cqQwrbXMDFnBi6vSJBeif8tPW85a7r7DM961Jvk4hdryZoByEp8GC8HzsqJpRN4FxGM92439 3.90897 3.95941C3.20376 4.67491 2.69832 5.5627 2.443 6.53434C2.18767 7.50598 2.19137 8.52756 2.4B8r3B4p7yhRXuBWLqsQ546WR43cqQwrbXMDFnBi6vSJBeif8tPW85a7r7DM961Jvk4hdryZoByEp8GC8HzsqJpRN4FxGM9.50257 13.5462C7.4B8r3B4p7yhRXuBWLqsQ546WR43cqQwrbXMDFnBi6vSJBeif8tPW85a7r7DM961Jvk4hdryZoByEp8GC8HzsqJpRN4FxGM9.756 11.3857 13.2742 10.5053 13.5436 9.53751Z" stroke="black" stroke-linecap="round" stroke-linejoin="round"/>
</svg>

